<?xml version="1.0" encoding="UTF-8"?>
<!DOCTYPE svg PUBLIC "-//W3C//DTD SVG 1.1//EN" "http://www.w3.org/Graphics/SVG/1.1/DTD/svg11.dtd">
<!-- Creator: CorelDRAW 2020 (64 Bit) -->
<svg xmlns="http://www.w3.org/2000/svg" xml:space="preserve" width="354px" height="472px" version="1.1" style="shape-rendering:geometricPrecision; text-rendering:geometricPrecision; image-rendering:optimizeQuality; fill-rule:evenodd; clip-rule:evenodd"
viewBox="0 0 354 472"
 xmlns:xlink="http://www.w3.org/1999/xlink"
 xmlns:xodm="http://www.corel.com/coreldraw/odm/2003">
 <defs>
  <style type="text/css">
   <![CDATA[
    .fil0 {fill:#FDFEFE}
   ]]>
  </style>
 </defs>
 <g id="Camada_x0020_1">
  <metadata id="CorelCorpID_0Corel-Layer"/>
  <path class="fil0" d="M192.06 222.23l-0.39 21.33c-0.32,-0.12 -18.38,-8.31 -18.48,-8.35l0.23 -4.93 18.64 -8.05zm-38.76 15.77l6.43 2.1c-0.3,9.26 1.55,21.22 12.63,13.99 -0.14,-1.58 -7.85,-13.18 0.81,-13.75 2.4,-0.15 1.61,-0.2 4.04,0.42 1.7,0.43 4.77,1.88 6.13,2.63 4.99,2.75 6.21,5.71 11.88,5.24 0.97,-3.51 0.31,-4.82 0.83,-8.46 1.1,-7.84 0.13,-0.69 3.24,-7.43 -3.78,-5.67 -2.48,0.18 -3.24,-7.41 -0.32,-3.22 0.76,-6.16 -1.77,-7.79 -2.59,-1.66 -9.2,4.22 -13.22,6 -18.6,8.22 -29.91,-6.74 -27.76,14.46z"/>
 </g>
</svg>
